<?xml version="1.0" encoding="UTF-8" standalone="no"?>
<!-- Created with Inkscape (http://www.inkscape.org/) -->

<svg
   width="210mm"
   height="297mm"
   viewBox="0 0 210 297"
   version="1.1"
   id="svg1"
   xml:space="preserve"
   inkscape:version="1.3.2 (091e20ef0f, 2023-11-25)"
   sodipodi:docname="logo.svg"
   xmlns:inkscape="http://www.inkscape.org/namespaces/inkscape"
   xmlns:sodipodi="http://sodipodi.sourceforge.net/DTD/sodipodi-0.dtd"
   xmlns="http://www.w3.org/2000/svg"
   xmlns:svg="http://www.w3.org/2000/svg"><sodipodi:namedview
     id="namedview1"
     pagecolor="#ffffff"
     bordercolor="#000000"
     borderopacity="0.25"
     inkscape:showpageshadow="2"
     inkscape:pageopacity="0.0"
     inkscape:pagecheckerboard="0"
     inkscape:deskcolor="#d1d1d1"
     inkscape:document-units="mm"
     showgrid="true"
     inkscape:zoom="1.4790714"
     inkscape:cx="250.83306"
     inkscape:cy="522.62522"
     inkscape:window-width="2560"
     inkscape:window-height="1378"
     inkscape:window-x="0"
     inkscape:window-y="0"
     inkscape:window-maximized="1"
     inkscape:current-layer="layer1"><inkscape:grid
       id="grid1"
       units="mm"
       originx="0"
       originy="0"
       spacingx="10"
       spacingy="10"
       empcolor="#0099e5"
       empopacity="0.30196078"
       color="#0099e5"
       opacity="0.14901961"
       empspacing="5"
       dotted="false"
       gridanglex="30"
       gridanglez="30"
       visible="true" /></sodipodi:namedview><defs
     id="defs1"><inkscape:path-effect
       effect="bspline"
       id="path-effect7"
       is_visible="true"
       lpeversion="1.3"
       weight="33.333333"
       steps="2"
       helper_size="0"
       apply_no_weight="true"
       apply_with_weight="true"
       only_selected="false"
       uniform="false" /><inkscape:path-effect
       effect="bspline"
       id="path-effect6"
       is_visible="true"
       lpeversion="1.3"
       weight="33.333333"
       steps="2"
       helper_size="0"
       apply_no_weight="true"
       apply_with_weight="true"
       only_selected="false"
       uniform="false" /><inkscape:path-effect
       effect="bspline"
       id="path-effect5"
       is_visible="true"
       lpeversion="1.3"
       weight="33.333333"
       steps="2"
       helper_size="0"
       apply_no_weight="true"
       apply_with_weight="true"
       only_selected="false"
       uniform="false" /><inkscape:path-effect
       effect="bspline"
       id="path-effect4"
       is_visible="true"
       lpeversion="1.3"
       weight="33.333333"
       steps="2"
       helper_size="0"
       apply_no_weight="true"
       apply_with_weight="true"
       only_selected="false"
       uniform="false" /><inkscape:path-effect
       effect="bspline"
       id="path-effect3"
       is_visible="true"
       lpeversion="1.3"
       weight="33.333333"
       steps="2"
       helper_size="0"
       apply_no_weight="true"
       apply_with_weight="true"
       only_selected="false"
       uniform="false" /><inkscape:path-effect
       effect="bspline"
       id="path-effect3-5"
       is_visible="true"
       lpeversion="1.3"
       weight="33.333333"
       steps="2"
       helper_size="0"
       apply_no_weight="true"
       apply_with_weight="true"
       only_selected="false"
       uniform="false" /></defs><g
     inkscape:label="Layer 1"
     inkscape:groupmode="layer"
     id="layer1"><path
       id="path1"
       style="fill:#00996c;stroke:#000000;stroke-width:1.32291667;stroke-linecap:butt;stroke-linejoin:miter;stroke-miterlimit:20;stroke-opacity:1;paint-order:stroke fill markers;stroke-dasharray:none;fill-opacity:1"
       d="M 69.999862 90.000191 L 69.999862 119.99991 C 69.999862 119.99991 75.383411 117.28851 80.948547 116.95979 A 30.000002 29.327934 0 0 1 95.449988 98.462207 C 81.324349 95.658882 69.999862 90.000191 69.999862 90.000191 z M 95.449988 98.462207 C 100.09827 99.384689 105.04817 100.0001 110 100.0001 C 114.98787 100.0001 119.97522 99.377315 124.65286 98.443604 A 30.000002 29.327934 0 0 0 110 94.697579 A 30.000002 29.327934 0 0 0 95.449988 98.462207 z M 124.65286 98.443604 A 30.000002 29.327934 0 0 1 139.11554 116.9634 C 144.65777 117.30908 150.00015 119.99991 150.00015 119.99991 L 150.00015 90.000191 C 150.00015 90.000191 138.73123 95.63339 124.65286 98.443604 z M 139.11554 116.9634 C 137.79625 116.88112 136.46801 116.93943 135.19537 117.19078 C 135.11135 117.33758 134.96972 117.47959 134.74785 117.63106 C 134.33321 117.91413 133.65581 118.23331 133.31693 118.39277 L 133.31641 118.39277 C 132.97749 118.55225 132.9778 118.55213 133.0017 118.85114 C 133.0256 119.15015 133.07355 119.74797 133.01772 120.34201 C 132.9619 120.93606 132.80219 121.52615 132.45135 122.17601 C 132.1005 122.82586 131.55845 123.53564 130.88865 123.99812 C 130.21886 124.4606 129.42164 124.67605 128.6123 124.57638 C 128.03387 124.50514 127.45377 124.27259 126.9752 124.05134 C 122.38135 131.15095 117.28053 142.86992 113.87987 153.08213 A 30.000002 29.327934 0 0 0 140.00024 124.0255 A 30.000002 29.327934 0 0 0 139.11554 116.9634 z M 113.87987 153.08213 A 30.000002 29.327934 0 0 1 110 153.35343 A 30.000002 29.327934 0 0 1 106.12014 153.08213 C 108.45646 160.09812 110 166.41052 110 169.99996 C 110 166.41052 111.54355 160.09812 113.87987 153.08213 z M 106.12014 153.08213 C 104.96164 149.60316 103.59462 145.95813 102.12865 142.37115 C 101.11004 142.39086 100.16297 142.03255 99.472481 141.57224 C 98.73092 141.07787 98.284328 140.47148 97.945443 140.31598 C 97.606557 140.16049 97.375549 140.45571 97.140324 140.64309 C 96.905099 140.8305 96.665821 140.91028 96.299032 140.85445 C 95.932242 140.79864 95.437637 140.60746 94.935291 140.3842 C 94.432944 140.16093 93.922912 139.9054 93.572066 139.59045 C 93.22122 139.27548 93.029794 138.90098 92.647058 138.33884 C 92.264322 137.77669 91.690136 137.02715 91.203735 136.2816 C 90.717335 135.53606 90.318497 134.79433 89.800203 133.50658 C 89.281911 132.21882 88.644311 130.38487 88.325358 129.08514 C 88.006403 127.78542 88.006146 127.02029 87.982227 126.39435 C 87.958307 125.76842 87.910462 125.28201 87.982227 124.99495 C 88.053989 124.7079 88.245692 124.62002 88.341378 124.38879 C 88.437061 124.15755 88.436979 123.78268 88.409074 123.19661 C 88.381168 122.61054 88.325346 121.81329 88.464884 121.25513 C 88.604424 120.69696 88.93904 120.37815 89.030741 120.0273 C 89.122444 119.67646 88.970964 119.29361 88.779594 118.94674 C 88.766608 118.92321 88.751066 118.9048 88.737736 118.88163 C 86.5201 117.23923 83.716089 116.7963 80.948547 116.95979 A 30.000002 29.327934 0 0 0 79.999768 124.0255 A 30.000002 29.327934 0 0 0 106.12014 153.08213 z M 88.737736 118.88163 C 89.18114 119.21002 89.609487 119.56916 90.000191 119.99991 C 93.76667 124.15249 98.314645 133.03892 102.12865 142.37115 C 102.20399 142.3697 102.27894 142.37124 102.35499 142.36547 C 103.45935 142.28174 104.63155 141.73141 105.50467 140.98984 C 106.3778 140.24829 106.95194 139.31541 107.36657 138.26288 C 107.78121 137.21034 108.03609 136.03831 107.96034 135.06152 C 107.88458 134.08474 107.47783 133.30325 107.28647 132.76502 C 107.09511 132.22679 107.11898 131.93192 107.29836 131.94388 C 107.47778 131.95584 107.81295 132.27488 108.1319 132.56193 C 108.45085 132.84898 108.75358 133.1038 109.32769 133.11177 C 109.9018 133.11971 110.74745 132.88102 112.27842 132.01985 C 113.80938 131.15868 116.02561 129.67538 118.338 128.12448 C 120.65038 126.57359 123.05881 124.95508 124.37845 124.19759 C 125.6981 123.44009 125.92906 123.54363 126.45533 123.80278 C 126.60547 123.87671 126.78416 123.96302 126.9752 124.05134 C 128.01792 122.43985 129.03523 121.06338 129.99982 119.99991 C 131.42796 118.42537 133.24472 117.57603 135.19537 117.19078 C 135.26835 117.06324 135.29929 116.93206 135.28632 116.78564 C 135.2584 116.47067 135.05077 116.08796 134.81554 115.76503 C 134.58032 115.44209 134.31716 115.17927 134.26932 114.8364 C 134.22152 114.49352 134.389 114.07073 134.22953 113.79564 C 134.07006 113.52054 133.58397 113.39314 133.30091 112.80707 C 133.01784 112.22099 132.93788 111.17617 132.62291 110.35089 C 132.30794 109.52561 131.75775 108.91963 131.27933 108.56082 C 130.8009 108.202 130.39459 108.09049 129.98793 107.96292 C 129.58127 107.83534 129.17413 107.69163 128.9389 107.55209 C 128.70368 107.41256 128.64005 107.27706 128.11776 106.96608 C 127.59548 106.6551 126.61481 106.16881 125.74168 105.90568 C 124.86855 105.64255 124.10327 105.60299 123.10256 105.77442 C 122.10185 105.94586 120.86557 106.32854 119.3984 107.07408 C 117.93123 107.81964 116.23315 108.92796 115.30821 109.522 C 114.38326 110.11604 114.23179 110.19564 112.94401 110.1478 C 111.65624 110.09999 109.232 109.92434 107.78877 109.84859 C 106.34553 109.77284 105.88352 109.79703 105.26954 109.85686 C 104.65556 109.9167 103.8899 110.01233 102.11573 110.71004 C 100.34156 111.40775 97.55859 112.70752 95.465491 113.80391 C 93.37239 114.90029 91.969352 115.79341 91.235775 116.23993 C 90.502196 116.68646 90.438193 116.68599 90.362443 116.5903 C 90.286693 116.49462 90.198934 116.30358 90.123181 116.20789 C 90.047429 116.11221 89.98362 116.11228 89.632772 116.1681 C 89.281923 116.22393 88.64439 116.33544 88.229757 116.51485 C 87.815124 116.69427 87.6233 116.94138 87.559513 117.18458 C 87.495729 117.42778 87.559653 117.66692 87.675269 117.79849 C 87.790885 117.93006 87.958585 117.95402 88.157926 118.12147 C 88.343742 118.27757 88.554617 118.56331 88.737736 118.88163 z " /></g></svg>
